<svg xmlns="http://www.w3.org/2000/svg" viewBox="0 0 207.98 294.83"><g id="Layer_2" data-name="Layer 2"><g id="Layer_1-2" data-name="Layer 1"><path d="M141.53,102.9a6.17,6.17,0,0,1-2.21-1.54,3.49,3.49,0,0,1-1-2.57v.07a198.35,198.35,0,0,1-2.23-25.4c-.09-4.25-.14-8.5,0-12.76s.19-8.5.38-12.75c.1-2.12.2-4.24.32-6.36l.37-6.37.41-6.36.1-1.59a3,3,0,0,1,1.4-2.33,2.66,2.66,0,0,1,.66-.31l.43-.13a5.25,5.25,0,0,0,.63-.22,4.78,4.78,0,0,0,.61-.28,4.67,4.67,0,0,0,.57-.33A7.14,7.14,0,0,0,145,19.53a6.24,6.24,0,0,0,.22-1.28,4.64,4.64,0,0,0,0-.65c0-.19,0-.51,0-.76l0-1.59,0-.78-.05-.64a6.88,6.88,0,0,0-2.36-4.34,6.78,6.78,0,0,0-4.55-1.64h-.21c-5.74-.48-11.49-.77-17.24-1s-11.5-.28-17.25-.2-11.5.26-17.24.57S74.85,8,69.13,8.54l-.27,0a6,6,0,0,0-6,5.36l0,.55v.78l0,1.59v.74c0,.19,0,.37,0,.56a5.73,5.73,0,0,0,.21,1.08,6.12,6.12,0,0,0,2.65,3.47c.16.09.32.19.49.27s.34.16.51.22a3.42,3.42,0,0,0,.54.18l.46.13a4,4,0,0,1,.94.42,4.27,4.27,0,0,1,2,3.24l.13,1.59q.26,3.2.47,6.37c.29,4.25.56,8.5.76,12.76.41,8.51.57,17.06.29,25.61A191.93,191.93,0,0,1,69.79,99v-.31a4.41,4.41,0,0,1-.9,2.88,6.55,6.55,0,0,1-2,1.75c-.19.11-.39.2-.58.29l-.56.24-1,.4-2,.81c-1.3.59-2.59,1.18-3.86,1.79s-2.55,1.26-3.78,2A97.17,97.17,0,0,0,5.6,209.13a88.74,88.74,0,0,0,11.2,31.58,90.65,90.65,0,0,0,22,25.08,97.28,97.28,0,0,0,14,9.17,100.26,100.26,0,0,0,15.37,6.61,108.07,108.07,0,0,0,16.24,4.07,111.07,111.07,0,0,0,16.68,1.5,109.88,109.88,0,0,0,16.72-.94,115,115,0,0,0,16.35-3.44,99,99,0,0,0,15.57-5.95A100.06,100.06,0,0,0,164,268.33a87.93,87.93,0,0,0,30.77-38.47,93.71,93.71,0,0,0,4.92-15.92c.26-1.37.58-2.73.79-4.11l.61-4.15.4-4.18c.14-1.39.13-2.79.22-4.19a97.59,97.59,0,0,0-.73-16.82,99,99,0,0,0-10.06-32.21A97.49,97.49,0,0,0,141.53,102.9Zm.23-.56a105.27,105.27,0,0,1,29.29,18.09l1.62,1.43,1.57,1.49c1.07,1,2.07,2,3.08,3.05.51.51,1,1,1.49,1.58l1.47,1.59q1.44,1.62,2.83,3.29a107.41,107.41,0,0,1,9.86,14.3,101.4,101.4,0,0,1,13.5,50.22v2.21c0,.73,0,1.47-.06,2.2l-.27,4.41-.49,4.4c-.17,1.46-.46,2.91-.68,4.37A91.2,91.2,0,0,1,200.15,232a88.4,88.4,0,0,1-8,15.86,95.67,95.67,0,0,1-24.39,25.67,102.8,102.8,0,0,1-31.84,15.37,113.84,113.84,0,0,1-35,4.36A112.1,112.1,0,0,1,66.26,287a106.33,106.33,0,0,1-16.14-7.2,100.57,100.57,0,0,1-14.62-9.93A91.15,91.15,0,0,1,2.29,209.59,103.35,103.35,0,0,1,17,142.76c1.5-2.48,3.16-4.86,4.86-7.2.89-1.15,1.75-2.31,2.67-3.43s1.82-2.25,2.8-3.32a103.9,103.9,0,0,1,12.47-12.08,109.15,109.15,0,0,1,14.32-9.85c1.24-.75,2.55-1.39,3.82-2.08s2.6-1.29,3.91-1.92l2-.89,1-.45.43-.2c.12-.07.25-.13.37-.21a3.88,3.88,0,0,0,1.19-1.07,1.73,1.73,0,0,0,.34-1.15,1.22,1.22,0,0,1,0-.27v0a175.15,175.15,0,0,0,1.63-25.18c0-8.42-.51-16.85-1.19-25.27-.32-4.21-.71-8.42-1.13-12.64l-.63-6.31-.15-1.58a.82.82,0,0,0,.39.62.81.81,0,0,0,.21.1l.06,0-.11,0L66,28.26A8.57,8.57,0,0,1,65,28a8,8,0,0,1-1-.39c-.31-.14-.61-.31-.91-.48a11.19,11.19,0,0,1-5-6.33,10.81,10.81,0,0,1-.44-2c0-.34,0-.68-.07-1V14.44l.05-1A11.37,11.37,0,0,1,68.86,3.17h-.27c5.8-.61,11.62-1.07,17.46-1.33s11.67-.38,17.51-.33,11.67.31,17.49.69,11.62,1,17.41,1.67h-.2a10.63,10.63,0,0,1,7,2.86,10.44,10.44,0,0,1,3.26,6.76l0,.95v.81l0,1.59c0,.28,0,.5,0,.83a7.45,7.45,0,0,1-.08.94,8.83,8.83,0,0,1-.42,1.83,10.09,10.09,0,0,1-4.6,5.65,9.06,9.06,0,0,1-.82.42,7,7,0,0,1-.86.34,8.94,8.94,0,0,1-.88.27l-.22.05-.11,0h0l-.05,0a.33.33,0,0,0-.2.29l-.18,1.58-.7,6.32q-.69,6.31-1.2,12.65C137.46,56.51,137,65,137,73.45c0,4.23.18,8.47.5,12.69s.79,8.43,1.43,12.62h0v.06a2.94,2.94,0,0,0,.81,2.13A5.65,5.65,0,0,0,141.76,102.34Z"/><path d="M104.4,294.83c-1.18,0-2.35,0-3.53-.05A113.76,113.76,0,0,1,83.06,293a115.77,115.77,0,0,1-17.3-4.58,107.68,107.68,0,0,1-16.37-7.3A100.18,100.18,0,0,1,34.55,271a94.56,94.56,0,0,1-22.92-27.39A93.51,93.51,0,0,1,.79,209.78,104.43,104.43,0,0,1,15.67,142c1.67-2.74,3.5-5.34,4.92-7.29l.81-1.06c.63-.82,1.26-1.64,1.91-2.43l1-1.18c.6-.73,1.22-1.48,1.88-2.21a105.58,105.58,0,0,1,12.63-12.23,112.07,112.07,0,0,1,14.53-10c.81-.49,1.68-.94,2.51-1.38l1.34-.72c1.34-.68,2.66-1.32,4-2L64.59,100l.19-.11a2.67,2.67,0,0,0,.76-.66.56.56,0,0,0,.08-.16,3,3,0,0,1,0-.6,175.29,175.29,0,0,0,1.62-25c0-7.44-.4-15.43-1.18-25.16-.29-3.76-.65-7.76-1.13-12.61l-.63-6.34c-.27-.1-.6-.24-.94-.4s-.62-.31-.95-.5a12.79,12.79,0,0,1-5.77-7.22,11.86,11.86,0,0,1-.49-2.29,6.84,6.84,0,0,1-.08-.85l0-1.2,0-2.42,0-1.11A12.89,12.89,0,0,1,68.62,1.66C74.79,1,80.47.59,86,.34S97.33,0,103.57,0c5.84.08,11.75.32,17.58.7,5.24.34,10.92.88,17.37,1.66a12,12,0,0,1,11.55,11l0,1L150,17.15c0,.19,0,.38,0,.62l0,.27a6,6,0,0,1-.08.84,11.75,11.75,0,0,1-.48,2.05,11.61,11.61,0,0,1-5.29,6.47,6.57,6.57,0,0,1-1,.5,7.55,7.55,0,0,1-1,.39,4.8,4.8,0,0,1-.53.17l-.79,7.11c-.45,4.16-.86,8.4-1.2,12.61-.81,9.63-1.17,17.65-1.13,25.26,0,4.14.17,8.38.49,12.59s.78,8.33,1.42,12.5l0,.18V99a1.39,1.39,0,0,0,.43,1,3.89,3.89,0,0,0,1.44,1A106.22,106.22,0,0,1,172,119.3l1.63,1.43,1.61,1.52c1,.89,1.89,1.83,2.78,2.75l.34.35c.51.51,1,1.06,1.52,1.61l1.47,1.59c1,1.11,1.94,2.22,2.87,3.34a108.27,108.27,0,0,1,10,14.52,102.87,102.87,0,0,1,12.1,33.2,104.82,104.82,0,0,1,1.6,17.77l0,2.63c0,.62,0,1.25-.06,1.91l-.26,4.37-.5,4.47c-.11,1-.28,2-.44,2.93-.09.5-.17,1-.25,1.51a93.83,93.83,0,0,1-4.89,17.37,91,91,0,0,1-8.16,16.13,96.65,96.65,0,0,1-24.77,26.07,103.85,103.85,0,0,1-32.31,15.6A114,114,0,0,1,104.4,294.83ZM3,198.49a100,100,0,0,0,.75,10.92,90.61,90.61,0,0,0,10.49,32.76,91.59,91.59,0,0,0,22.18,26.51,97.44,97.44,0,0,0,14.41,9.78,105,105,0,0,0,15.9,7.1A113.36,113.36,0,0,0,83.61,290a116.36,116.36,0,0,0,51.87-2.54,100.86,100.86,0,0,0,31.38-15.14,93.83,93.83,0,0,0,24-25.26,87.61,87.61,0,0,0,7.88-15.59,89.82,89.82,0,0,0,4.73-16.77c.08-.49.16-1,.25-1.53.17-1,.32-1.85.42-2.76l.49-4.39.26-4.33c.05-.57.05-1.12.06-1.7v-2.62a99.54,99.54,0,0,0-7.06-36.56,99,99,0,0,1,5.32,36.55c0,.56-.06,1.09-.07,1.62,0,.87-.07,1.76-.16,2.67l-.4,4.16-.62,4.23c-.14.93-.32,1.84-.51,2.72-.1.49-.2,1-.29,1.45a95.54,95.54,0,0,1-5,16.22,92.39,92.39,0,0,1-7.88,14.95,90.53,90.53,0,0,1-23.41,24.17,102.81,102.81,0,0,1-14.53,8.61,101.06,101.06,0,0,1-15.81,6A117.13,117.13,0,0,1,118,287.7a116.68,116.68,0,0,1-33.86-.57A109.31,109.31,0,0,1,67.64,283,101.83,101.83,0,0,1,52,276.29,98.14,98.14,0,0,1,37.83,267,91.78,91.78,0,0,1,15.5,241.48,89.79,89.79,0,0,1,4.11,209.37,94.31,94.31,0,0,1,3,198.49ZM71.31,99a5.87,5.87,0,0,1-1.21,3.47,8,8,0,0,1-2.48,2.15c-.21.12-.44.23-.67.34l-3.58,1.49c-1.24.56-2.51,1.14-3.78,1.75-.41.22-.87.45-1.33.68-.82.41-1.59.8-2.35,1.23a96.48,96.48,0,0,0-14,9.28A95.73,95.73,0,0,0,7.09,208.9a86.68,86.68,0,0,0,11,31A88.75,88.75,0,0,0,39.7,264.6a95.37,95.37,0,0,0,13.77,9,99.1,99.1,0,0,0,15.13,6.51,106.21,106.21,0,0,0,16,4,113.66,113.66,0,0,0,32.94.56,115.08,115.08,0,0,0,16.14-3.4A97.7,97.7,0,0,0,149,275.45a99,99,0,0,0,14.1-8.35,87.52,87.52,0,0,0,22.63-23.36,88.62,88.62,0,0,0,7.62-14.45,92.85,92.85,0,0,0,4.85-15.67c.08-.46.18-1,.29-1.46.18-.88.35-1.71.48-2.55l.61-4.15.39-4.1c.08-.81.11-1.62.14-2.48,0-.55,0-1.11.08-1.67A96.3,96.3,0,0,0,189.58,149,96.36,96.36,0,0,0,141,104.29h0a7.53,7.53,0,0,1-2.77-1.92,5.07,5.07,0,0,1-1.36-3.47,202.76,202.76,0,0,1-2.22-25.4c-.07-3.8-.14-8.29,0-12.83s.2-8.71.39-12.78c.09-2.13.19-4.26.32-6.39l.88-14.33a4.53,4.53,0,0,1,2.11-3.52,4.31,4.31,0,0,1,1-.46l.45-.13a3,3,0,0,0,.45-.16l.1,0a2.57,2.57,0,0,0,.41-.19l.09,0a2.14,2.14,0,0,0,.3-.17l.12-.07a5.67,5.67,0,0,0,2.4-3.26,4.92,4.92,0,0,0,.18-1V18a.91.91,0,0,0,0-.17c0-.1,0-.21,0-.31s0-.23,0-.36L143.66,14a5.36,5.36,0,0,0-5.37-4.59H138c-5.19-.43-10.65-.74-17.27-1-5.69-.21-11.47-.28-17.17-.2-5.37.05-11,.23-17.18.56s-11.83.8-17.12,1.33l-.41,0a4.49,4.49,0,0,0-4.46,4,4.36,4.36,0,0,1,0,.51l0,2.91v.07c0,.05,0,.16,0,.26v.11a4.24,4.24,0,0,0,.16.88,4.63,4.63,0,0,0,2,2.62l.11.07a1.18,1.18,0,0,0,.19.11l.11.05a1.6,1.6,0,0,0,.3.13l.12.05.32.1.48.14a5.5,5.5,0,0,1,1.32.59A5.75,5.75,0,0,1,72.17,27l.13,1.58c.17,2.13.34,4.26.48,6.39.33,4.94.58,9,.76,12.79.45,9.41.54,17.82.29,25.73A192.87,192.87,0,0,1,71.31,99ZM67.16,27.47l.78,7.89c.48,4.87.84,8.9,1.13,12.67.79,9.81,1.17,17.87,1.2,25.39q0,7.65-.53,15c.55-4.95.9-10,1.07-15,.25-7.82.16-16.16-.29-25.49-.18-3.76-.42-7.81-.76-12.73-.13-2.12-.3-4.23-.47-6.34l-.13-1.59a2.7,2.7,0,0,0-1.26-2.07,2.6,2.6,0,0,0-.61-.28l-.43-.12a6.38,6.38,0,0,1-.66-.22c-.21-.08-.42-.17-.62-.27s-.34-.18-.51-.28L65,24a7.58,7.58,0,0,1-3.34-4.35,7.15,7.15,0,0,1-.25-1.3,3.15,3.15,0,0,1,0-.53V17.5l0-3.15c0-.16,0-.32,0-.48v-.1A7.6,7.6,0,0,1,63.85,9a7.5,7.5,0,0,1,5-1.92H69c5.34-.53,11-1,17.26-1.33s11.9-.52,17.3-.57c5.75-.08,11.58,0,17.33.2,6.66.25,12.16.57,17.31,1a8.3,8.3,0,0,1,5.61,2,8.4,8.4,0,0,1,2.87,5.29l.09,1.58,0,1.87a5.77,5.77,0,0,1,0,.59v.16a4,4,0,0,1,0,.6,7.48,7.48,0,0,1-.28,1.52,8.33,8.33,0,0,1-.75,1.86,8.78,8.78,0,0,0,.85-1.84,8.92,8.92,0,0,0,.36-1.56,4.17,4.17,0,0,0,.05-.53l0-.33c0-.17,0-.31,0-.45l.06-2.69,0-.87a9,9,0,0,0-8.68-8.15h-.2c-6.4-.77-12-1.31-17.23-1.65-5.78-.38-11.63-.61-17.41-.69-6.18,0-11.88.05-17.42.32S75.05,4,68.94,4.66h0l-.28,0h0a9.86,9.86,0,0,0-9.57,8.86l0,1,.05,3.43a5.28,5.28,0,0,0,0,.55,9.93,9.93,0,0,0,.38,1.8,9.74,9.74,0,0,0,4.35,5.49,7,7,0,0,0,.75.4,6.89,6.89,0,0,0,.84.35,7.17,7.17,0,0,0,.87.28l.36.09-.16.63h0v0l.6,0v-.05Zm-.45-.57h0Z"/><path d="M136.18,111.32a4.5,4.5,0,0,1-2.61-3.32c-3.89-17.64-4.35-52.54-2.69-81.43.06-3-53.62-3.7-53.56-.68,1.51,24.67,1.48,57.72-.49,72.69-.52,3.94-.92,6.15-3,9.52l-.13.2a14.61,14.61,0,0,1-6.06,5.08c-30.23,13.94-51.77,45.57-51.77,81,0,48.45,39.28,82.46,87.73,82.46h0c48.45,0,87.73-34,87.73-82.46C191.29,157.66,168.16,124.42,136.18,111.32Z"/></g></g></svg>