<?xml version="1.0" encoding="utf-8"?>
<!-- Generator: Adobe Illustrator 25.3.1, SVG Export Plug-In . SVG Version: 6.00 Build 0)  -->
<svg version="1.1" id="Layer_1" xmlns="http://www.w3.org/2000/svg" xmlns:xlink="http://www.w3.org/1999/xlink" x="0px" y="0px"
	 viewBox="0 0 208 294.8" style="enable-background:new 0 0 208 294.8;" xml:space="preserve">
<style type="text/css">
	.st0{fill:#FFFFFF;}
</style>
<g id="Layer_2_1_">
	<g id="Layer_1-2">
		<path class="st0" d="M141.5,102.9c-0.8-0.3-1.6-0.9-2.2-1.5c-0.7-0.7-1-1.6-1-2.6v0.1c-1.3-8.4-2-16.9-2.2-25.4
			c-0.1-4.2-0.1-8.5,0-12.8s0.2-8.5,0.4-12.8c0.1-2.1,0.2-4.2,0.3-6.4l0.4-6.4l0.4-6.4l0.1-1.6c0.1-1,0.6-1.8,1.4-2.3
			c0.2-0.1,0.4-0.2,0.7-0.3l0.4-0.1c0.2-0.1,0.4-0.1,0.6-0.2c0.2-0.1,0.4-0.2,0.6-0.3c0.2-0.1,0.4-0.2,0.6-0.3c1.5-1,2.6-2.4,3-4.1
			c0.1-0.4,0.2-0.8,0.2-1.3c0-0.2,0-0.4,0-0.6c0-0.2,0-0.5,0-0.8v-1.6v-0.8l-0.1-0.6c-0.2-1.7-1.1-3.2-2.4-4.4
			c-1.3-1.1-2.9-1.7-4.6-1.6H138c-5.7-0.5-11.5-0.8-17.2-1s-11.5-0.3-17.2-0.2S92.1,6.9,86.3,7.2S74.8,8,69.1,8.5h-0.3
			c-3.1,0-5.7,2.3-6,5.4v0.6v0.8v1.6v0.7c0,0.2,0,0.4,0,0.6c0,0.4,0.1,0.7,0.2,1.1c0.4,1.4,1.4,2.7,2.7,3.5c0.2,0.1,0.3,0.2,0.5,0.3
			c0.2,0.1,0.3,0.2,0.5,0.2c0.2,0.1,0.4,0.1,0.5,0.2l0.5,0.1c0.3,0.1,0.6,0.2,0.9,0.4c1.1,0.7,1.9,1.9,2,3.2l0.1,1.6
			c0.2,2.1,0.3,4.3,0.5,6.4c0.3,4.2,0.6,8.5,0.8,12.8c0.4,8.5,0.6,17.1,0.3,25.6C72,82,71.2,90.6,69.8,99v-0.3c0,1-0.3,2.1-0.9,2.9
			c-0.5,0.7-1.2,1.3-2,1.8c-0.2,0.1-0.4,0.2-0.6,0.3l-0.6,0.2l-1,0.4l-2,0.8c-1.3,0.6-2.6,1.2-3.9,1.8s-2.5,1.3-3.8,2
			c-36,19.6-55.8,59.8-49.5,100.3c1.7,11.1,5.5,21.9,11.2,31.6c5.7,9.6,13.2,18.2,22,25.1c4.4,3.5,9.1,6.5,14,9.2
			c4.9,2.6,10.1,4.8,15.4,6.6c5.3,1.8,10.7,3.1,16.2,4.1c5.5,0.9,11.1,1.4,16.7,1.5c5.6,0.1,11.2-0.2,16.7-0.9
			c5.5-0.7,11-1.9,16.4-3.5c5.3-1.5,10.6-3.5,15.6-5.9c5-2.4,9.8-5.3,14.3-8.5c9.1-6.4,16.9-14.5,23-23.8c3-4.7,5.6-9.6,7.8-14.7
			c2.1-5.2,3.8-10.5,4.9-15.9c0.3-1.4,0.6-2.7,0.8-4.1l0.6-4.1l0.4-4.2c0.1-1.4,0.1-2.8,0.2-4.2c0.2-5.6,0-11.2-0.7-16.8
			c-1.5-11.2-4.9-22.1-10.1-32.2C180.3,127.8,162.8,111.7,141.5,102.9z M141.8,102.3c10.7,4.4,20.6,10.5,29.3,18.1l1.6,1.4l1.6,1.5
			c1.1,1,2.1,2,3.1,3.1c0.5,0.5,1,1,1.5,1.6l1.5,1.6c1,1.1,1.9,2.2,2.8,3.3c3.7,4.5,7,9.3,9.9,14.3c8.8,15.3,13.4,32.6,13.5,50.2
			v2.2c0,0.7,0,1.5-0.1,2.2l-0.3,4.4l-0.5,4.4c-0.2,1.5-0.5,2.9-0.7,4.4c-1.1,5.8-2.7,11.5-4.8,17c-2.1,5.5-4.8,10.9-8,15.9
			c-6.5,10-14.7,18.7-24.4,25.7c-9.7,6.9-20.4,12.1-31.9,15.4c-11.4,3.3-23.2,4.7-35,4.4c-11.8-0.2-23.5-2.3-34.7-6.2
			c-5.6-1.9-11-4.4-16.1-7.2c-5.2-2.9-10-6.2-14.6-9.9c-18.5-15-30.4-36.6-33.2-60.3c-2.8-23.3,2.4-46.9,14.7-66.8
			c1.5-2.5,3.2-4.9,4.9-7.2c0.9-1.1,1.8-2.3,2.7-3.4s1.8-2.2,2.8-3.3c3.8-4.4,8-8.4,12.5-12.1c4.5-3.7,9.3-7,14.3-9.8
			c1.2-0.8,2.5-1.4,3.8-2.1s2.6-1.3,3.9-1.9l2-0.9l1-0.4l0.4-0.2c0.1-0.1,0.2-0.1,0.4-0.2c0.5-0.3,0.9-0.6,1.2-1.1
			c0.2-0.3,0.4-0.7,0.3-1.2c0-0.1,0-0.2,0-0.3l0,0c1.1-8.3,1.7-16.8,1.6-25.2c0-8.4-0.5-16.8-1.2-25.3c-0.3-4.2-0.7-8.4-1.1-12.6
			l-0.6-6.3l-0.2-1.6c0,0.3,0.2,0.5,0.4,0.6c0.1,0,0.1,0.1,0.2,0.1l0,0h-0.1L66,28.3c-0.3-0.1-0.7-0.2-1-0.3c-0.3-0.1-0.7-0.2-1-0.4
			c-0.3-0.1-0.6-0.3-0.9-0.5c-2.4-1.4-4.2-3.7-5-6.3c-0.2-0.7-0.4-1.3-0.4-2c0-0.3,0-0.7-0.1-1v-3.4l0-1C58.2,7.6,63,3.2,68.9,3.2
			h-0.3c5.8-0.6,11.6-1.1,17.5-1.3s11.7-0.4,17.5-0.3s11.7,0.3,17.5,0.7s11.6,1,17.4,1.7h-0.2c2.6,0.1,5.1,1.1,7,2.9
			c1.9,1.8,3,4.2,3.3,6.8v0.9v0.8v1.6c0,0.3,0,0.5,0,0.8c0,0.3,0,0.6-0.1,0.9c-0.1,0.6-0.2,1.2-0.4,1.8c-0.8,2.4-2.4,4.4-4.6,5.6
			c-0.3,0.2-0.5,0.3-0.8,0.4c-0.3,0.1-0.6,0.2-0.9,0.3c-0.3,0.1-0.6,0.2-0.9,0.3l-0.2,0h-0.1l0,0h-0.1c-0.1,0.1-0.2,0.2-0.2,0.3
			l-0.2,1.6l-0.7,6.3c-0.5,4.2-0.9,8.4-1.2,12.7c-0.7,8.5-1.2,17-1.2,25.4c0,4.2,0.2,8.5,0.5,12.7s0.8,8.4,1.4,12.6l0,0
			c0,0,0,0,0,0.1c0,0.8,0.3,1.6,0.8,2.1C140.3,101.6,141,102,141.8,102.3z"/>
		<path class="st0" d="M104.4,294.8c-1.2,0-2.3,0-3.5,0c-6-0.1-11.9-0.7-17.8-1.8c-5.9-1.1-11.7-2.6-17.3-4.6
			c-5.7-2-11.1-4.4-16.4-7.3c-5.2-2.9-10.2-6.3-14.8-10.1c-9.3-7.6-17.1-16.9-22.9-27.4c-5.7-10.5-9.4-22-10.8-33.8
			c-2.9-23.6,2.3-47.5,14.9-67.8c1.7-2.8,3.5-5.3,4.9-7.3l0.8-1.1c0.6-0.8,1.3-1.6,1.9-2.4l1-1.2c0.6-0.7,1.2-1.5,1.9-2.2
			c3.9-4.4,8.1-8.5,12.6-12.2c4.6-3.7,9.4-7.1,14.5-10c0.8-0.5,1.7-0.9,2.5-1.4l1.3-0.7c1.3-0.7,2.7-1.3,4-2l3.4-1.5l0.2-0.1
			c0.3-0.2,0.6-0.4,0.8-0.7c0,0,0.1-0.1,0.1-0.2c0-0.2,0-0.4,0-0.6c1.1-8.3,1.7-16.6,1.6-25c0-7.4-0.4-15.4-1.2-25.2
			c-0.3-3.7-0.7-7.8-1.1-12.6l-0.6-6.3c-0.3-0.1-0.6-0.2-0.9-0.4s-0.6-0.3-1-0.5c-2.8-1.6-4.8-4.2-5.8-7.2c-0.2-0.7-0.4-1.5-0.5-2.3
			c0-0.3-0.1-0.6-0.1-0.9v-1.2v-2.5v-1.1c0.6-6.5,6-11.5,12.5-11.7C74.8,1,80.5,0.6,86,0.3S97.3,0,103.6,0
			c5.8,0.1,11.8,0.3,17.6,0.7c5.2,0.3,10.9,0.9,17.4,1.7c6.1,0.2,11,4.9,11.6,11v1l-0.1,2.8c0,0.2,0,0.4,0,0.6V18
			c0,0.3,0,0.6-0.1,0.8c-0.1,0.7-0.3,1.4-0.5,2c-0.9,2.7-2.8,5-5.3,6.5l-0.1,0.1c-0.6,0.3-1.2,0.6-1.9,0.8c-0.2,0.1-0.4,0.1-0.5,0.2
			l-0.8,7.1c-0.4,4.2-0.9,8.4-1.2,12.6c-0.8,9.6-1.2,17.7-1.1,25.3c0,4.1,0.2,8.4,0.5,12.6s0.8,8.3,1.4,12.5v0.2v0.2
			c0,0.4,0.2,0.7,0.4,1c0.4,0.4,0.9,0.8,1.4,1c10.8,4.4,20.9,10.7,29.7,18.4l1.6,1.4l1.6,1.5c1,0.9,1.9,1.8,2.8,2.8l0.3,0.3
			c0.5,0.5,1,1.1,1.5,1.6l1.5,1.6c1,1.1,1.9,2.2,2.9,3.4c3.7,4.6,7.1,9.4,10,14.5c5.9,10.3,10,21.5,12.1,33.2
			c1,5.9,1.6,11.8,1.6,17.8v2.6c0,0.6,0,1.2-0.1,1.9l-0.3,4.4l-0.5,4.5c-0.1,1-0.3,2-0.4,2.9c-0.1,0.5-0.2,1-0.2,1.5
			c-1.1,5.9-2.7,11.8-4.9,17.4c-2.2,5.6-4.9,11-8.2,16.1c-6.6,10.2-15,19-24.8,26.1c-9.8,7-20.7,12.3-32.3,15.6
			C125.9,293.4,115.2,294.9,104.4,294.8z M3,198.5c0.1,3.7,0.3,7.3,0.8,10.9c1.4,11.5,4.9,22.6,10.5,32.8
			c5.6,10.2,13.2,19.2,22.2,26.5c4.5,3.7,9.3,7,14.4,9.8c5.1,2.8,10.4,5.2,15.9,7.1c11,3.9,22.6,6,34.3,6.2
			c11.7,0.4,23.3-1.1,34.5-4.3c11.3-3.2,21.9-8.3,31.4-15.1c9.5-6.8,17.6-15.4,24-25.3c3.1-4.9,5.8-10.1,7.9-15.6
			c2.1-5.4,3.7-11,4.7-16.8c0.1-0.5,0.2-1,0.2-1.5c0.2-1,0.3-1.9,0.4-2.8l0.5-4.4l0.3-4.3c0.1-0.6,0.1-1.1,0.1-1.7v-2.6
			c0-12.5-2.4-24.9-7.1-36.6c2.2,6.3,3.7,12.8,4.6,19.5c0.7,5.7,1,11.4,0.7,17.1c0,0.6-0.1,1.1-0.1,1.6c0,0.9-0.1,1.8-0.2,2.7
			l-0.4,4.2L202,210c-0.1,0.9-0.3,1.8-0.5,2.7c-0.1,0.5-0.2,1-0.3,1.4c-1.2,5.5-2.9,11-5,16.2c-2.2,5.2-4.8,10.2-7.9,14.9
			c-6.2,9.5-14.2,17.6-23.4,24.2c-4.6,3.3-9.5,6.1-14.5,8.6c-5.1,2.4-10.4,4.4-15.8,6c-5.4,1.6-11,2.8-16.6,3.5
			c-11.3,1.5-22.7,1.3-33.9-0.6c-5.6-0.9-11.1-2.3-16.5-4.1c-5.4-1.8-10.6-4-15.6-6.7c-5-2.7-9.7-5.8-14.2-9.3
			c-9-7-16.5-15.7-22.3-25.5c-5.8-9.9-9.7-20.8-11.4-32.1C3.5,205.8,3.2,202.1,3,198.5z M71.3,99c0,1.3-0.5,2.5-1.2,3.5
			c-0.7,0.9-1.5,1.6-2.5,2.2c-0.2,0.1-0.4,0.2-0.7,0.3l-3.6,1.5c-1.2,0.6-2.5,1.1-3.8,1.8c-0.4,0.2-0.9,0.4-1.3,0.7
			c-0.8,0.4-1.6,0.8-2.3,1.2c-35.5,19.3-55,58.8-48.8,98.8c1.7,10.9,5.4,21.5,11,31c5.6,9.5,12.9,17.9,21.6,24.7
			c4.3,3.4,8.9,6.4,13.8,9c4.9,2.6,9.9,4.8,15.1,6.5c5.2,1.7,10.6,3.1,16,4c10.9,1.8,22,2,32.9,0.6c5.5-0.7,10.8-1.9,16.1-3.4
			c10.5-3,20.5-7.8,29.4-14.2c8.9-6.3,16.6-14.2,22.6-23.4c3-4.6,5.5-9.4,7.6-14.4c2.1-5.1,3.7-10.3,4.8-15.7c0.1-0.4,0.2-1,0.3-1.5
			c0.2-0.9,0.4-1.7,0.5-2.5l0.6-4.1l0.4-4.1c0.1-0.8,0.1-1.6,0.1-2.5c0-0.6,0-1.1,0.1-1.7c0.7-16.7-3-33.3-10.6-48.2
			c-10.4-20.2-27.6-36-48.6-44.7l0,0c-1.1-0.4-2-1.1-2.8-1.9c-0.9-0.9-1.4-2.2-1.4-3.5c-1.3-8.4-2-16.9-2.2-25.4
			c-0.1-3.8-0.1-8.3,0-12.8s0.2-8.7,0.4-12.8c0.1-2.1,0.2-4.3,0.3-6.4l0.9-14.3c0.1-1.8,1.3-3.4,3.1-4l0.4-0.1
			c0.2,0,0.3-0.1,0.4-0.2h0.1c0.1-0.1,0.3-0.1,0.4-0.2h0.1c0.1-0.1,0.2-0.1,0.3-0.2l0.1-0.1c1.2-0.7,2-1.9,2.4-3.2
			c0.1-0.3,0.2-0.7,0.2-1V18c0-0.1,0-0.1,0-0.2v-0.7l-0.2-3.1c-0.4-2.7-2.7-4.6-5.4-4.6H138c-5.2-0.4-10.7-0.7-17.3-1
			c-5.7-0.2-11.5-0.3-17.2-0.2c-5.4,0.1-11,0.2-17.2,0.6s-11.8,0.8-17.1,1.3h-0.4c-1.1,0-2.2,0.4-3,1.1c-0.8,0.7-1.3,1.7-1.4,2.8
			c0,0.2,0,0.3,0,0.5v2.9v0.1c0,0,0,0.1,0,0.2v0.1c0,0.3,0.1,0.6,0.2,0.9c0.3,1.1,1,2,2,2.6l0.1,0.1c0.1,0,0.1,0.1,0.2,0.1l0.1,0
			c0.1,0.1,0.2,0.1,0.3,0.1l0.1,0l0.3,0.1l0.5,0.1c0.5,0.1,0.9,0.3,1.3,0.6c1.5,1,2.5,2.6,2.6,4.4l0.1,1.6c0.2,2.1,0.3,4.3,0.5,6.4
			c0.3,4.9,0.6,9,0.8,12.8c0.4,9.4,0.5,17.8,0.3,25.7C73.6,82,72.7,90.6,71.3,99z M67.2,27.5l0.8,7.9c0.5,4.9,0.8,8.9,1.1,12.7
			c0.8,9.8,1.2,17.9,1.2,25.4c0,5.1-0.2,10.1-0.5,15c0.6-4.9,0.9-10,1.1-15c0.2-7.8,0.2-16.2-0.3-25.5c-0.2-3.8-0.4-7.8-0.8-12.7
			c-0.1-2.1-0.3-4.2-0.5-6.3l-0.1-1.6c-0.1-0.8-0.5-1.6-1.3-2.1c-0.2-0.1-0.4-0.2-0.6-0.3l-0.4-0.1c-0.2-0.1-0.4-0.1-0.7-0.2
			c-0.2-0.1-0.4-0.2-0.6-0.3c-0.2-0.1-0.3-0.2-0.5-0.3L65,24c-1.6-1-2.8-2.5-3.3-4.4c-0.1-0.4-0.2-0.9-0.2-1.3c0-0.2,0-0.4,0-0.5
			v-0.3v-3.1c0-0.2,0-0.3,0-0.5v-0.1c0.2-1.8,1.1-3.5,2.4-4.8c1.4-1.2,3.2-1.9,5-1.9H69c5.3-0.5,11-1,17.3-1.3s11.9-0.5,17.3-0.6
			c5.7-0.1,11.6,0,17.3,0.2c6.7,0.2,12.2,0.6,17.3,1c2.1-0.1,4.1,0.7,5.6,2c1.6,1.3,2.6,3.2,2.9,5.3l0.1,1.6v1.9c0,0.2,0,0.4,0,0.6
			v0.2c0,0.2,0,0.4,0,0.6c0,0.5-0.1,1-0.3,1.5c-0.2,0.7-0.4,1.3-0.8,1.9c0.4-0.6,0.7-1.2,0.9-1.9c0.2-0.5,0.3-1,0.4-1.6
			c0-0.2,0-0.4,0.1-0.5v-0.3c0-0.2,0-0.3,0-0.5l0.1-2.7v-0.9c-0.4-4.5-4.1-8-8.7-8.1h-0.2c-6.4-0.8-12-1.3-17.2-1.7
			c-5.8-0.4-11.6-0.6-17.4-0.7c-6.2,0-11.9,0-17.4,0.3S75,4,68.9,4.7l0,0h-0.3l0,0c-5,0.1-9.1,3.9-9.6,8.9v1l0,3.4
			c0,0.2,0,0.4,0,0.5c0.1,0.6,0.2,1.2,0.4,1.8c0.7,2.3,2.3,4.3,4.3,5.5c0.2,0.1,0.5,0.3,0.8,0.4c0.3,0.1,0.6,0.3,0.8,0.4
			c0.3,0.1,0.6,0.2,0.9,0.3l0.4,0.1l-0.2,0.6l0,0l0,0L67.2,27.5L67.2,27.5L67.2,27.5z M66.7,26.9L66.7,26.9z"/>
		<path class="st0" d="M103.6,276.8L103.6,276.8c48.4,0,87.7-34,87.7-82.5c0-5-0.4-10-1.3-15c-0.6-3.3-3.4-5.7-6.7-5.7H23.9
			c-3.3,0-6.2,2.4-6.7,5.7c-0.9,5-1.3,10-1.3,15C15.8,242.8,55.1,276.8,103.6,276.8z"/>
	</g>
</g>
</svg>
