<?xml version="1.0" encoding="utf-8"?>
<!-- Generator: Adobe Illustrator 25.3.1, SVG Export Plug-In . SVG Version: 6.00 Build 0)  -->
<svg version="1.1" id="Layer_1" xmlns="http://www.w3.org/2000/svg" xmlns:xlink="http://www.w3.org/1999/xlink" x="0px" y="0px"
	 viewBox="0 0 208 294.8" style="enable-background:new 0 0 208 294.8;" xml:space="preserve">
<style type="text/css">
	.st0{fill:#FFFFFF;}
</style>
<g id="Layer_2_1_">
	<g id="Layer_1-2">
		<path class="st0" d="M66.2,102.3c0.8-0.3,1.4-0.8,2-1.4c0.5-0.6,0.8-1.3,0.8-2.1c0,0,0,0,0-0.1l0,0c0.7-4.2,1.1-8.4,1.4-12.6
			c0.3-4.2,0.5-8.5,0.5-12.7c0-8.5-0.4-16.9-1.1-25.4c-0.3-4.2-0.7-8.4-1.2-12.7l-0.7-6.3l-0.2-1.6c0-0.1-0.1-0.2-0.2-0.3l0,0l0,0
			h-0.1l-0.2,0c-0.3-0.1-0.6-0.2-0.9-0.3c-0.3-0.1-0.6-0.2-0.9-0.3c-0.3-0.1-0.6-0.3-0.8-0.4c-2.2-1.3-3.9-3.3-4.6-5.7
			c-0.2-0.6-0.3-1.2-0.4-1.8c0-0.3-0.1-0.6-0.1-0.9c0-0.3,0-0.5,0-0.8v-1.6v-0.8v-0.9c0.2-2.6,1.4-5,3.3-6.8c1.9-1.8,4.4-2.8,7-2.9
			h-0.2C75.3,3.2,81.1,2.6,87,2.2s11.7-0.6,17.5-0.7s11.7,0,17.5,0.3s11.7,0.7,17.5,1.3h-0.3c5.8,0,10.6,4.5,11.2,10.2l0.1,1v3.2
			c0,0.4,0,0.7-0.1,1c-0.1,0.7-0.2,1.3-0.4,2c-0.8,2.7-2.6,4.9-5,6.3c-0.3,0.2-0.6,0.3-0.9,0.5c-0.3,0.2-0.7,0.3-1,0.4
			c-0.3,0.1-0.7,0.2-1,0.3l-0.2,0.1h-0.1h0.1c0.1,0,0.1-0.1,0.2-0.1c0.2-0.1,0.4-0.4,0.4-0.6l-0.1,1.6l-0.6,6.3
			c-0.4,4.2-0.8,8.4-1.1,12.6c-0.7,8.4-1.2,16.9-1.2,25.3c-0.1,8.4,0.5,16.8,1.6,25.2l0,0c0,0.1,0,0.2,0,0.3c0,0.4,0.1,0.8,0.3,1.2
			c0.3,0.4,0.7,0.8,1.2,1.1c0.1,0.1,0.2,0.1,0.4,0.2l0.4,0.2l1,0.4l2,0.9c1.3,0.6,2.6,1.3,3.9,1.9s2.6,1.3,3.8,2.1
			c5,2.9,9.8,6.2,14.3,9.8c4.5,3.7,8.7,7.7,12.5,12.1c1,1.1,1.9,2.2,2.8,3.3s1.8,2.3,2.7,3.4c1.7,2.3,3.4,4.7,4.9,7.2
			c12.3,20,17.5,43.5,14.7,66.8c-2.8,23.7-14.7,45.3-33.2,60.3c-4.6,3.7-9.5,7.1-14.6,9.9c-5.2,2.8-10.6,5.3-16.1,7.2
			c-22.5,7.7-46.8,8.4-69.6,1.9c-11.4-3.2-22.2-8.4-31.8-15.4c-9.7-7-17.9-15.7-24.4-25.7c-3.2-5-5.9-10.3-8-15.9
			C5.7,226.4,4.1,220.8,3,215c-0.2-1.5-0.5-2.9-0.7-4.4l-0.5-4.4l-0.3-4.4c-0.1-0.7,0-1.5-0.1-2.2v-2.2c0.1-17.6,4.7-35,13.5-50.2
			c2.9-5,6.2-9.8,9.9-14.3c0.9-1.1,1.9-2.2,2.8-3.3l1.5-1.6c0.5-0.5,1-1.1,1.5-1.6c1-1,2-2.1,3.1-3.1l1.6-1.5l1.6-1.4
			C45.6,112.8,55.5,106.7,66.2,102.3z M66.5,102.9c-21.3,8.8-38.8,24.9-49.4,45.4c-5.2,10.1-8.6,21-10.1,32.2
			c-0.7,5.6-1,11.2-0.7,16.8c0.1,1.4,0.1,2.8,0.2,4.2l0.4,4.2l0.6,4.1c0.2,1.4,0.5,2.7,0.8,4.1c1.2,5.4,2.8,10.8,4.9,15.9
			c2.1,5.1,4.7,10.1,7.8,14.7c6.1,9.3,13.9,17.3,23,23.8c4.5,3.2,9.3,6.1,14.3,8.5c5,2.4,10.2,4.4,15.6,6c5.4,1.5,10.8,2.7,16.3,3.4
			c5.5,0.7,11.1,1.1,16.7,0.9c5.6-0.1,11.2-0.6,16.7-1.5c5.5-0.9,10.9-2.3,16.2-4.1c5.3-1.8,10.4-4,15.3-6.6c4.9-2.6,9.6-5.7,14-9.2
			c8.8-6.9,16.3-15.4,22-25.1c5.7-9.7,9.5-20.4,11.2-31.6c6.4-40.5-13.5-80.7-49.6-100.3c-1.2-0.7-2.5-1.3-3.8-2s-2.6-1.2-3.9-1.8
			l-2-0.8l-1-0.4l-0.6-0.2c-0.2-0.1-0.4-0.2-0.6-0.3c-0.8-0.4-1.5-1-2-1.8c-0.6-0.8-0.9-1.8-0.9-2.9V99c-1.4-8.4-2.3-17-2.5-25.5
			c-0.3-8.6-0.1-17.1,0.3-25.6c0.2-4.3,0.5-8.5,0.8-12.8c0.1-2.1,0.3-4.2,0.5-6.4l0.1-1.6c0.1-1.3,0.9-2.5,2-3.2
			c0.3-0.2,0.6-0.3,0.9-0.4l0.5-0.1c0.2,0,0.4-0.1,0.5-0.2c0.2-0.1,0.3-0.1,0.5-0.2c0.2-0.1,0.3-0.2,0.5-0.3c1.3-0.8,2.2-2,2.6-3.5
			c0.1-0.4,0.2-0.7,0.2-1.1c0-0.2,0-0.4,0-0.6v-0.7v-1.6v-0.8v-0.6c-0.3-3-2.9-5.4-5.9-5.4h-0.3c-5.7-0.6-11.5-1-17.2-1.3
			s-11.5-0.5-17.2-0.6S93,6.6,87.2,6.8S75.7,7.4,70,7.8h-0.2c-1.7,0-3.3,0.5-4.6,1.6c-1.3,1.1-2.1,2.7-2.4,4.3l0,0.6v0.8v1.6
			c0,0.2,0,0.6,0,0.8c0,0.2,0,0.4,0,0.6c0,0.4,0.1,0.9,0.2,1.3c0.4,1.7,1.5,3.2,3,4.1c0.2,0.1,0.4,0.2,0.6,0.3
			c0.2,0.1,0.4,0.2,0.6,0.3c0.2,0.1,0.4,0.2,0.6,0.2l0.4,0.1c0.2,0.1,0.5,0.2,0.7,0.3c0.8,0.5,1.3,1.4,1.4,2.3l0.1,1.6l0.4,6.4
			l0.4,6.4c0.1,2.1,0.2,4.2,0.3,6.4c0.2,4.3,0.3,8.5,0.4,12.8c0.1,4.3,0,8.5,0,12.8c-0.2,8.5-0.9,17-2.2,25.4v-0.1
			c0,1-0.3,1.9-1,2.6C68,102,67.3,102.6,66.5,102.9z"/>
		<path class="st0" d="M103.6,294.8c-10.8,0-21.5-1.5-31.9-4.5c-11.6-3.3-22.5-8.6-32.3-15.6c-9.8-7.1-18.2-15.9-24.8-26.1
			c-3.2-5.1-6-10.5-8.2-16.1c-2.2-5.6-3.8-11.4-4.9-17.3c-0.1-0.5-0.2-1-0.3-1.5c-0.2-0.9-0.3-1.9-0.4-2.9l-0.5-4.4l-0.3-4.5
			C0,201.3,0,200.6,0,200v-2.6c0-6,0.6-11.9,1.6-17.8c2.1-11.7,6.2-22.9,12.1-33.2c2.9-5.1,6.3-10,10-14.5c1-1.1,1.9-2.2,2.9-3.3
			l1.5-1.5c0.5-0.5,1-1.1,1.5-1.6l0.3-0.3c0.9-0.9,1.8-1.9,2.8-2.8l1.6-1.5l1.7-1.5c8.8-7.7,18.9-13.9,29.7-18.4l0,0
			c0.5-0.2,1-0.6,1.4-1c0.3-0.3,0.4-0.6,0.4-1v-0.2v-0.3c0.7-4.1,1.1-8.3,1.5-12.5s0.5-8.4,0.5-12.6c0-7.6-0.3-15.6-1.1-25.2
			c-0.3-4.2-0.8-8.5-1.2-12.6l-0.8-7.1c-0.2-0.1-0.4-0.1-0.6-0.2c-0.3-0.1-0.7-0.2-1-0.4c-0.3-0.1-0.6-0.3-0.8-0.4l-0.1,0
			c-2.5-1.4-4.4-3.7-5.3-6.5c-0.2-0.7-0.4-1.4-0.5-2.1c0-0.3-0.1-0.5-0.1-0.8v-0.3c0-0.3,0-0.5,0-0.6l-0.1-2.7v-1
			c0.5-6.1,5.4-10.8,11.5-11.1C75.9,1.6,81.6,1,86.8,0.7c5.8-0.4,11.7-0.6,17.6-0.7c6.2,0,12,0.1,17.6,0.3s11.2,0.7,17.3,1.3
			c6.5,0.1,11.9,5.1,12.5,11.6l0.1,1.1V18c0,0.3,0,0.6-0.1,0.9c-0.1,0.8-0.2,1.5-0.5,2.2c-1,3-3,5.6-5.7,7.2
			c-0.3,0.2-0.7,0.4-1.1,0.6c-0.3,0.1-0.6,0.3-0.9,0.4l-0.7,6.4c-0.5,4.9-0.8,8.9-1.1,12.6c-0.8,9.7-1.2,17.7-1.2,25.2
			c-0.1,8.4,0.5,16.7,1.6,25c0,0.2,0,0.4,0,0.6c0,0.1,0,0.1,0.1,0.2c0.2,0.3,0.4,0.5,0.7,0.6l0.2,0.1l3.4,1.5c1.4,0.7,2.7,1.3,4,2
			l1.4,0.7c0.8,0.4,1.7,0.9,2.6,1.4c5.1,2.9,9.9,6.3,14.5,10c4.6,3.7,8.8,7.8,12.7,12.3c0.6,0.7,1.3,1.5,1.9,2.2
			c0.3,0.4,0.6,0.8,1,1.1c0.7,0.8,1.3,1.6,1.9,2.4l0.8,1c1.4,2,3.3,4.6,5,7.3c12.5,20.2,17.8,44.2,14.9,67.8
			c-1.4,11.9-5.1,23.4-10.8,33.9c-5.9,10.5-13.6,19.7-23,27.3c-4.6,3.8-9.6,7.2-14.8,10.1c-5.2,2.9-10.7,5.3-16.4,7.3
			c-5.6,2-11.4,3.5-17.3,4.6c-5.9,1.1-11.8,1.7-17.8,1.8C105.9,294.8,104.8,294.8,103.6,294.8z M10.1,160.8c-4.6,11.6-7,24-7.1,36.6
			v2.6c0,0.6,0,1.1,0,1.7l0.3,4.4l0.5,4.3c0.1,0.9,0.3,1.8,0.4,2.8c0.1,0.5,0.2,1,0.2,1.6c1,5.7,2.6,11.3,4.7,16.7
			c2.1,5.4,4.7,10.7,7.9,15.6c6.4,9.8,14.5,18.4,24,25.3c9.5,6.8,20.1,12,31.4,15.1c11.2,3.2,22.9,4.7,34.5,4.3
			c5.8-0.1,11.7-0.7,17.4-1.8c5.7-1,11.4-2.5,16.9-4.5c5.5-1.9,10.8-4.3,15.9-7.1c5.1-2.8,9.9-6.1,14.4-9.8
			c9-7.3,16.5-16.3,22.2-26.5c5.6-10.2,9.1-21.3,10.5-32.8c0.4-3.6,0.7-7.3,0.8-10.9c-0.1,3.7-0.5,7.3-1.1,10.9
			c-1.7,11.3-5.6,22.2-11.4,32.1c-5.8,9.8-13.4,18.5-22.3,25.5c-4.5,3.5-9.2,6.6-14.2,9.3c-5,2.7-10.2,4.9-15.6,6.7
			c-5.4,1.8-10.9,3.2-16.5,4.1c-11.2,1.8-22.6,2-33.9,0.5c-5.6-0.8-11.1-1.9-16.6-3.5c-5.4-1.6-10.7-3.6-15.8-6
			c-5.1-2.5-9.9-5.3-14.5-8.6c-9.2-6.5-17.2-14.7-23.4-24.2c-3.1-4.7-5.7-9.8-7.9-15c-2.1-5.2-3.8-10.6-5-16.2
			c-0.1-0.5-0.2-1-0.3-1.5c-0.2-0.9-0.4-1.8-0.5-2.7l-0.6-4.1L5,201.6c-0.1-0.9-0.1-1.8-0.2-2.7c0-0.5,0-1.1-0.1-1.6
			c-0.2-5.7,0-11.4,0.7-17.1C6.4,173.7,7.9,167.1,10.1,160.8L10.1,160.8z M71.2,98.9c0,1.3-0.5,2.5-1.4,3.5
			c-0.8,0.8-1.7,1.5-2.8,1.9l0,0c-37.3,15.5-61,52.6-59.2,93c0,0.5,0,1.1,0.1,1.6c0,0.9,0.1,1.7,0.1,2.5l0.4,4.2l0.6,4.1
			c0.1,0.8,0.3,1.7,0.5,2.6c0.1,0.5,0.2,1,0.3,1.5c1.2,5.3,2.8,10.6,4.8,15.6c2.1,5,4.7,9.9,7.6,14.5c6,9.1,13.7,17,22.7,23.3
			c4.5,3.2,9.2,6,14.1,8.4c4.9,2.4,10.1,4.3,15.3,5.9c5.3,1.5,10.7,2.7,16.1,3.4c10.9,1.4,22,1.2,32.9-0.6c5.4-0.9,10.8-2.3,16-4
			c5.2-1.7,10.3-3.9,15.1-6.5c4.8-2.6,9.4-5.6,13.8-9c8.7-6.8,16-15.2,21.6-24.6c5.6-9.5,9.3-20.1,11-31
			c6.2-39.9-13.3-79.4-48.8-98.7c-0.8-0.4-1.6-0.8-2.4-1.2l-1.4-0.7c-1.2-0.6-2.5-1.2-3.8-1.8l-3.5-1.6c-0.3-0.1-0.5-0.2-0.8-0.4
			c-1-0.5-1.8-1.3-2.5-2.1c-0.8-1-1.2-2.2-1.2-3.5c-1.4-8.4-2.2-16.9-2.5-25.5c-0.2-7.9-0.2-16.3,0.3-25.7c0.2-3.8,0.4-7.9,0.8-12.8
			c0.1-2.1,0.3-4.3,0.5-6.4l0.1-1.6c0.2-1.8,1.2-3.5,2.7-4.4c0.4-0.2,0.8-0.4,1.3-0.6l0.5-0.1l0.3-0.1l0.1,0c0.1,0,0.2-0.1,0.3-0.1
			l0.1,0c0.1,0,0.1-0.1,0.2-0.1l0.1-0.1c1-0.6,1.7-1.5,2-2.6c0.1-0.3,0.1-0.5,0.2-0.8v-0.1v-0.1c0-0.1,0-0.2,0-0.3v-0.1v-2.8
			c0-0.2,0-0.3,0-0.5c-0.2-2.3-2.2-4-4.4-4h-0.4c-5.3-0.5-10.9-1-17.1-1.3s-11.8-0.5-17.2-0.6C98.8,8,93,8.1,87.3,8.3
			c-6.6,0.2-12.1,0.6-17.2,1h-0.4c-1.3,0-2.6,0.4-3.5,1.3c-1,0.9-1.7,2.1-1.9,3.4l-0.1,1.3v1.9v0.7c0,0.1,0,0.1,0,0.2v0.1
			c0,0.3,0.1,0.7,0.2,1c0.4,1.4,1.2,2.5,2.4,3.3l0.1,0.1c0.1,0.1,0.2,0.1,0.3,0.2h0.1c0.1,0.1,0.3,0.1,0.4,0.2h0.1
			c0.1,0.1,0.3,0.1,0.4,0.1l0.4,0.1c0.4,0.1,0.7,0.3,1,0.5c1.2,0.8,2,2.1,2.1,3.5l0.5,7.9l0.4,6.4c0.1,2.1,0.2,4.3,0.3,6.4
			c0.2,4.1,0.3,8.4,0.4,12.8s0,9,0,12.8C73.2,81.9,72.4,90.5,71.2,98.9z M141.8,24.6c-0.2,0.1-0.4,0.2-0.7,0.2l-0.4,0.1
			c-0.2,0.1-0.4,0.1-0.6,0.3c-0.7,0.4-1.2,1.2-1.3,2.1l-0.1,1.6c-0.2,2.1-0.3,4.2-0.5,6.3c-0.3,4.9-0.6,9-0.8,12.7
			c-0.4,9.3-0.5,17.7-0.3,25.5c0.2,5.1,0.5,10.1,1.1,15.1c-0.4-4.9-0.6-10-0.5-15.1c0-7.5,0.4-15.6,1.2-25.4
			c0.3-3.8,0.6-7.8,1.1-12.7l0.8-7.9l0,0v0h0.6l0,0l0,0l-0.1-0.6h-0.1l0,0h0.1l0,0l0.3-0.1c0.3-0.1,0.6-0.2,0.8-0.2
			c0.3-0.1,0.6-0.2,0.8-0.4c0.3-0.1,0.5-0.3,0.8-0.4c2.1-1.2,3.7-3.2,4.4-5.5c0.2-0.6,0.3-1.2,0.4-1.8c0-0.2,0-0.4,0-0.6v-1.1v-2.4
			l-0.1-1c-0.5-4.9-4.6-8.7-9.6-8.8l0,0h-0.3l0,0c-6.1-0.6-11.7-1.1-17.2-1.3S110.6,3,104.4,3C98.7,3.1,92.8,3.3,87,3.7
			C81.8,4,76.2,4.6,69.8,5.3h-0.2C65,5.5,61.3,9,60.9,13.6v0.9l0.1,2.7c0,0.1,0,0.3,0,0.5v0.3c0,0.2,0,0.3,0,0.5
			c0.1,0.6,0.2,1.1,0.4,1.7c0.2,0.7,0.5,1.3,0.9,1.9c-0.3-0.6-0.6-1.2-0.8-1.9c-0.1-0.5-0.2-1-0.3-1.5c0-0.2,0-0.4,0-0.6v-0.1
			c0-0.2,0-0.4,0-0.6l0.1-3.4c0.3-2.1,1.3-4,2.9-5.4c1.5-1.3,3.5-2,5.6-2c5.2-0.4,10.7-0.8,17.3-1c5.8-0.2,11.6-0.3,17.3-0.2
			c5.4,0.1,11.1,0.2,17.3,0.6S133.7,6.5,139,7h0.1c1.8,0,3.6,0.7,5,1.9c1.4,1.2,2.2,2.9,2.4,4.8v0.1c0,0.2,0,0.3,0,0.5v0.1v3v0.4
			c0,0.2,0,0.4,0,0.5c0,0.5-0.1,0.9-0.3,1.3c-0.5,1.8-1.7,3.4-3.3,4.4l-0.1,0.1c-0.2,0.1-0.3,0.2-0.5,0.3S142,24.5,141.8,24.6z
			 M141.5,27.5l-0.1-0.7L141.5,27.5z"/>
	</g>
</g>
</svg>
