<svg xmlns="http://www.w3.org/2000/svg" viewBox="0 0 207.98 294.83"><g id="Layer_2" data-name="Layer 2"><g id="Layer_1-2" data-name="Layer 1"><path d="M66.22,102.34a5.65,5.65,0,0,0,2-1.38A2.94,2.94,0,0,0,69,98.83s0,0,0-.06h0q1-6.29,1.43-12.62c.32-4.22.49-8.46.5-12.69,0-8.48-.43-16.94-1.14-25.39q-.51-6.33-1.2-12.65l-.7-6.32-.18-1.58a.33.33,0,0,0-.2-.29l0,0h0l-.11,0-.22-.05a8.94,8.94,0,0,1-.88-.27,7,7,0,0,1-.86-.34,9.06,9.06,0,0,1-.82-.42A10.09,10.09,0,0,1,60,20.44a8.83,8.83,0,0,1-.42-1.83,7.45,7.45,0,0,1-.08-.94c0-.33,0-.55,0-.83l0-1.59v-.81l0-.95a10.44,10.44,0,0,1,3.26-6.76,10.63,10.63,0,0,1,7-2.86h-.2c5.79-.7,11.59-1.29,17.41-1.67s11.66-.61,17.49-.69,11.68,0,17.51.33,11.66.72,17.46,1.33h-.27A11.37,11.37,0,0,1,150.39,13.4l.05,1v3.25c0,.35,0,.69-.07,1a10.81,10.81,0,0,1-.44,2,11.19,11.19,0,0,1-5,6.33c-.3.17-.6.34-.91.48a8,8,0,0,1-1,.39,8.57,8.57,0,0,1-1,.31l-.25.07-.11,0,.06,0a.81.81,0,0,0,.21-.1.82.82,0,0,0,.39-.62l-.15,1.58-.63,6.31c-.42,4.21-.81,8.43-1.13,12.64-.68,8.42-1.16,16.85-1.19,25.27a175.15,175.15,0,0,0,1.63,25.18v0a1.22,1.22,0,0,1,0,.27,1.73,1.73,0,0,0,.34,1.15,3.88,3.88,0,0,0,1.19,1.07c.12.08.25.14.37.21l.43.2,1,.45,2,.89c1.31.63,2.61,1.26,3.91,1.92s2.58,1.33,3.82,2.08a109.15,109.15,0,0,1,14.32,9.85,103.9,103.9,0,0,1,12.47,12.08c1,1.07,1.87,2.21,2.8,3.32s1.78,2.28,2.67,3.43c1.7,2.34,3.36,4.72,4.86,7.2a103.35,103.35,0,0,1,14.66,66.83,91.15,91.15,0,0,1-33.21,60.26,100.57,100.57,0,0,1-14.62,9.93,106.33,106.33,0,0,1-16.14,7.2,116.64,116.64,0,0,1-69.64,1.94,102.8,102.8,0,0,1-31.84-15.37,95.67,95.67,0,0,1-24.39-25.67,88.4,88.4,0,0,1-8-15.86A91.42,91.42,0,0,1,3,215c-.22-1.46-.51-2.91-.68-4.37l-.49-4.4-.27-4.41c-.06-.73-.05-1.47-.06-2.2v-2.21A101.4,101.4,0,0,1,15,147.16a107.41,107.41,0,0,1,9.86-14.3q1.39-1.67,2.83-3.29L29.17,128c.49-.54,1-1.07,1.49-1.58,1-1,2-2.07,3.08-3.05l1.57-1.49,1.62-1.43A105.27,105.27,0,0,1,66.22,102.34Zm.23.56a97.49,97.49,0,0,0-49.39,45.38A99,99,0,0,0,7,180.49a97.59,97.59,0,0,0-.73,16.82c.09,1.4.08,2.8.22,4.19l.4,4.18.61,4.15c.21,1.38.53,2.74.79,4.11a93.71,93.71,0,0,0,4.92,15.92A90.58,90.58,0,0,0,21,244.57a89.52,89.52,0,0,0,23,23.76,100.06,100.06,0,0,0,14.32,8.48,99,99,0,0,0,15.57,5.95,115,115,0,0,0,16.35,3.44,109.88,109.88,0,0,0,16.72.94,111.07,111.07,0,0,0,16.68-1.5,108.07,108.07,0,0,0,16.24-4.07A101.26,101.26,0,0,0,155.23,275a97.28,97.28,0,0,0,14-9.17,90.65,90.65,0,0,0,22-25.08,88.74,88.74,0,0,0,11.2-31.58,97,97,0,0,0-49.56-100.29c-1.23-.71-2.52-1.31-3.78-2s-2.56-1.2-3.86-1.79l-2-.81-1-.4-.56-.24c-.19-.09-.39-.18-.58-.29a6.55,6.55,0,0,1-2-1.75,4.41,4.41,0,0,1-.9-2.88V99a191.93,191.93,0,0,1-2.53-25.54c-.28-8.55-.12-17.1.29-25.61.2-4.26.47-8.51.76-12.76q.21-3.18.47-6.37l.13-1.59a4.27,4.27,0,0,1,2-3.24,4,4,0,0,1,.94-.42l.46-.13a3.8,3.8,0,0,0,.54-.18c.17-.06.34-.14.51-.22a4.76,4.76,0,0,0,.49-.28,6.07,6.07,0,0,0,2.65-3.46,5.73,5.73,0,0,0,.21-1.08c0-.19,0-.37,0-.56v-.74l0-1.59v-.78l0-.55a6,6,0,0,0-5.95-5.36l-.27,0c-5.72-.57-11.46-1-17.19-1.32s-11.49-.52-17.24-.57-11.5,0-17.25.2-11.5.51-17.24,1h-.21a6.82,6.82,0,0,0-4.55,1.63,6.91,6.91,0,0,0-2.36,4.35l-.05.64,0,.78,0,1.59c0,.25,0,.57,0,.76a4.64,4.64,0,0,0,0,.65,6.24,6.24,0,0,0,.22,1.28A7.14,7.14,0,0,0,66,23.67a4.67,4.67,0,0,0,.57.33,4.78,4.78,0,0,0,.61.28,5.25,5.25,0,0,0,.63.22l.43.13a2.66,2.66,0,0,1,.66.31,3,3,0,0,1,1.4,2.33l.1,1.59.41,6.36.37,6.37c.12,2.12.22,4.24.32,6.36q.28,6.38.38,12.75c.1,4.26,0,8.51,0,12.76a198.35,198.35,0,0,1-2.23,25.4v-.07a3.49,3.49,0,0,1-1,2.57A6.17,6.17,0,0,1,66.45,102.9Z"/><path d="M103.58,294.83a114,114,0,0,1-31.92-4.46,103.85,103.85,0,0,1-32.31-15.6A96.65,96.65,0,0,1,14.58,248.7a91,91,0,0,1-8.16-16.13,93.37,93.37,0,0,1-4.88-17.34c-.09-.53-.17-1-.26-1.54-.16-.95-.33-1.93-.44-2.92l-.49-4.4-.27-4.49C0,201.27,0,200.64,0,200l0-2.64a104.64,104.64,0,0,1,1.6-17.77,102.75,102.75,0,0,1,12.1-33.21,109.28,109.28,0,0,1,10-14.51c.95-1.13,1.9-2.24,2.87-3.33L28.06,127c.5-.54,1-1.09,1.54-1.62l.31-.32c.9-.92,1.83-1.87,2.8-2.77l1.56-1.47,1.67-1.47a106.22,106.22,0,0,1,29.7-18.36h0a3.89,3.89,0,0,0,1.44-1,1.39,1.39,0,0,0,.43-1V98.8l0-.33C68.17,94.36,68.65,90.16,69,86s.48-8.45.49-12.59c0-7.62-.32-15.64-1.13-25.25-.34-4.22-.75-8.47-1.2-12.62l-.79-7.11a4.85,4.85,0,0,1-.61-.2,8.9,8.9,0,0,1-1-.38,7.42,7.42,0,0,1-.83-.43l-.09-.05a11.65,11.65,0,0,1-5.3-6.49,12.24,12.24,0,0,1-.48-2.1,5.2,5.2,0,0,1-.07-.76l0-.26c0-.26,0-.45,0-.64l-.06-2.68,0-1A12,12,0,0,1,69.46,2.37C75.91,1.59,81.59,1.05,86.83.71,92.66.33,98.57.09,104.4,0c6.25,0,12,.06,17.61.33s11.18.68,17.35,1.32a12.88,12.88,0,0,1,12.53,11.59l.05,1.12,0,3.69a7,7,0,0,1-.09.91,12,12,0,0,1-.48,2.25,12.75,12.75,0,0,1-5.71,7.16,9.28,9.28,0,0,1-1.07.56,8.64,8.64,0,0,1-.88.38L143,35.66c-.48,4.87-.84,8.87-1.12,12.6-.79,9.74-1.16,17.73-1.19,25.17a175.82,175.82,0,0,0,1.61,25,2.71,2.71,0,0,1,0,.63.37.37,0,0,0,.09.17,2.4,2.4,0,0,0,.72.64l.23.13,3.4,1.53c1.35.65,2.67,1.29,4,2l1.37.73c.84.45,1.71.9,2.55,1.41a110.92,110.92,0,0,1,14.49,10,105.3,105.3,0,0,1,12.66,12.26c.64.7,1.26,1.45,1.86,2.19.32.38.63.76,1,1.14.66.82,1.28,1.63,1.9,2.44l.8,1c1.44,2,3.28,4.57,5,7.34a104.4,104.4,0,0,1,14.87,67.8,93.58,93.58,0,0,1-10.84,33.85A94.56,94.56,0,0,1,173.43,271a100.18,100.18,0,0,1-14.84,10.08,107.68,107.68,0,0,1-16.37,7.3A115.58,115.58,0,0,1,124.91,293a113.5,113.5,0,0,1-17.8,1.8C105.93,294.82,104.75,294.83,103.58,294.83Zm-93.5-134A99.73,99.73,0,0,0,3,197.39L3,200c0,.58,0,1.13,0,1.66l.26,4.44.49,4.32c.1.9.26,1.8.42,2.76.09.51.17,1,.25,1.55a91,91,0,0,0,4.73,16.74,87.61,87.61,0,0,0,7.88,15.59,93.83,93.83,0,0,0,24,25.26,100.81,100.81,0,0,0,31.37,15.14,112,112,0,0,0,34.54,4.3A111.32,111.32,0,0,0,124.36,290a113.16,113.16,0,0,0,16.86-4.45,106,106,0,0,0,15.91-7.1,97.87,97.87,0,0,0,14.4-9.78,91.59,91.59,0,0,0,22.18-26.51,90.61,90.61,0,0,0,10.49-32.76,100.34,100.34,0,0,0,.75-10.94,94.87,94.87,0,0,1-1.08,10.9,89.79,89.79,0,0,1-11.39,32.11A91.78,91.78,0,0,1,170.15,267a98.14,98.14,0,0,1-14.21,9.32,101.83,101.83,0,0,1-15.6,6.71,109.92,109.92,0,0,1-16.47,4.13A116.68,116.68,0,0,1,90,287.7a117.13,117.13,0,0,1-16.56-3.5,101.06,101.06,0,0,1-15.81-6,102.81,102.81,0,0,1-14.53-8.61A90.64,90.64,0,0,1,19.7,245.4a92.9,92.9,0,0,1-7.88-15,94.4,94.4,0,0,1-5-16.18c-.1-.52-.2-1-.3-1.49-.19-.88-.37-1.79-.51-2.72L5.4,205.9,5,201.65c-.09-.9-.12-1.79-.15-2.66,0-.53,0-1.06-.08-1.59a100.14,100.14,0,0,1,.74-17.1A101.66,101.66,0,0,1,10.08,160.81ZM71.15,98.9a5,5,0,0,1-1.37,3.47A7.41,7.41,0,0,1,67,104.29h0a96.09,96.09,0,0,0-59.24,93c0,.53,0,1.09.07,1.64,0,.86.06,1.67.14,2.47l.4,4.19.6,4.07c.13.84.3,1.67.48,2.55.1.5.21,1,.3,1.5a93.52,93.52,0,0,0,4.83,15.63,90,90,0,0,0,7.63,14.46A87.63,87.63,0,0,0,44.86,267.1,99.45,99.45,0,0,0,59,275.45a97,97,0,0,0,15.35,5.86,114.81,114.81,0,0,0,16.12,3.4,113.64,113.64,0,0,0,32.94-.56,106.33,106.33,0,0,0,16-4,99.64,99.64,0,0,0,15.14-6.51,95.82,95.82,0,0,0,13.76-9A88.71,88.71,0,0,0,189.88,240a87,87,0,0,0,11-31,95.59,95.59,0,0,0-48.79-98.74c-.79-.45-1.56-.84-2.38-1.25l-1.38-.7c-1.22-.59-2.49-1.17-3.77-1.75L141.1,105c-.3-.14-.53-.25-.76-.38a8.12,8.12,0,0,1-2.47-2.14,5.93,5.93,0,0,1-1.2-3.48,192.71,192.71,0,0,1-2.52-25.49c-.25-7.9-.16-16.32.29-25.73.18-3.8.43-7.86.77-12.79.13-2.13.3-4.26.47-6.39l.13-1.59a5.77,5.77,0,0,1,2.71-4.41,5.64,5.64,0,0,1,1.27-.57l.5-.14.34-.11.12-.05a1.36,1.36,0,0,0,.3-.13l.11-.05a1.18,1.18,0,0,0,.19-.11l.13-.08a4.6,4.6,0,0,0,2-2.58,3.85,3.85,0,0,0,.16-.82l0-.12v-.08c0-.11,0-.21,0-.31v-.09l0-2.84a4.36,4.36,0,0,1,0-.51,4.49,4.49,0,0,0-4.45-4l-.42,0c-5.29-.53-10.9-1-17.13-1.33s-11.79-.51-17.16-.56c-5.71-.08-11.49,0-17.18.2-6.62.25-12.08.56-17.18,1h-.36a5.33,5.33,0,0,0-3.54,1.27A5.4,5.4,0,0,0,64.31,14l-.06,1.27,0,1.88v.67a1.09,1.09,0,0,0,0,.18v.1a5.21,5.21,0,0,0,.17,1,5.64,5.64,0,0,0,2.42,3.28l.11.07a2.91,2.91,0,0,0,.3.17l.09,0a2.57,2.57,0,0,0,.41.19l.1,0a2.19,2.19,0,0,0,.43.15l.44.13a5,5,0,0,1,1,.48,4.51,4.51,0,0,1,2.09,3.51l.52,7.95.36,6.38c.13,2.13.23,4.26.32,6.39.19,4.06.32,8.36.39,12.79s0,9,0,12.81A202.76,202.76,0,0,1,71.15,98.9Zm70.63-74.31a5.39,5.39,0,0,1-.68.22l-.44.13a2.37,2.37,0,0,0-.56.26,2.7,2.7,0,0,0-1.28,2.07l-.13,1.6c-.17,2.11-.34,4.22-.47,6.34-.34,4.91-.58,9-.76,12.73-.45,9.34-.54,17.67-.29,25.49.17,5.07.53,10.1,1.08,15.06-.38-4.92-.56-10-.54-15.07,0-7.52.41-15.59,1.2-25.39.29-3.75.64-7.78,1.12-12.66l.79-7.9h0v.05l.58,0v0h0l-.14-.62-.07,0h0l.09,0h0l.34-.09a7.27,7.27,0,0,0,.83-.25,8.94,8.94,0,0,0,.84-.35,7.53,7.53,0,0,0,.76-.4,9.74,9.74,0,0,0,4.39-5.5,9.27,9.27,0,0,0,.38-1.76,5.13,5.13,0,0,0,0-.61l0-1.1,0-2.4-.05-1a9.86,9.86,0,0,0-9.56-8.79h0l-.28,0h0c-6.1-.63-11.73-1.06-17.18-1.31S110.62,3,104.44,3c-5.78.08-11.64.31-17.41.69-5.2.34-10.83.88-17.23,1.65h-.2a9,9,0,0,0-8.68,8.22l0,.88L61,17.1c0,.14,0,.29,0,.47l0,.31a3.57,3.57,0,0,0,0,.46A9.46,9.46,0,0,0,61.39,20a8.67,8.67,0,0,0,.89,1.9,8.44,8.44,0,0,1-.79-1.92,7.74,7.74,0,0,1-.27-1.5,4,4,0,0,1,0-.6v-.15a6,6,0,0,1,0-.6l.12-3.37a8.5,8.5,0,0,1,2.88-5.38,8.29,8.29,0,0,1,5.57-2c5.19-.43,10.69-.75,17.35-1,5.75-.21,11.58-.28,17.33-.2,5.41.05,11.07.24,17.3.57S133.66,6.51,139,7h.12a7.46,7.46,0,0,1,5,1.93,7.55,7.55,0,0,1,2.44,4.79v.1c0,.16,0,.32,0,.48v.1l0,3v.38a3.15,3.15,0,0,1,0,.53,7.12,7.12,0,0,1-.26,1.33A7.55,7.55,0,0,1,143,24l-.12.07c-.16.09-.33.19-.5.27S142,24.51,141.78,24.59Zm-.28,2.94-.13-.66Z"/></g></g></svg>