<svg xmlns="http://www.w3.org/2000/svg" viewBox="0 0 233.61 300"><g id="Layer_2" data-name="Layer 2"><g id="Layer_1-2" data-name="Layer 1"><path d="M233.09,275.9q-2.73-7.08-5.57-14.16h0l0,0a1049.49,1049.49,0,0,0-56.75-119.42C157.35,118.22,145,97.53,137.36,71c-3.08-10.78-8.44-21.76-10.2-32.88-1.78-11.32.74-22.78,1.53-34.25a3.61,3.61,0,0,0-6.37-2.55C112.47,13,101.17,23.72,93.44,36.81c-6,10.2-9.76,22-13.87,33C70.88,93.16,60.51,115.91,52,139.23c-9.17,25.07-13.31,51.54-22.91,76.59C20.31,238.72,11,261.67.72,284a7.85,7.85,0,0,0,6.16,11.07c74.33,9.18,146.54,5.07,220.29-8.62A7.88,7.88,0,0,0,233.09,275.9Zm-129-58.81q-8.82,3.91-18.21,8.6a1.5,1.5,0,0,0-.74,1.75q2.73,10.94,5.67,22.1c.44,1.66-1.54,2.49-2.88,1.24q-9-8.42-17.49-15.66a1.8,1.8,0,0,0-2-.2q-9.81,5.46-20,11.83c-1.52.95-3.18-.24-2.42-1.76q5.07-10.2,9.81-20.33a1.49,1.49,0,0,0-.37-1.83q-8-6.26-15.43-11.46c-1.1-.78-.12-2.89,1.42-3.07a151.28,151.28,0,0,1,21-.94,1.82,1.82,0,0,0,1.68-1.1q4.41-10.08,8.44-20.13a1.54,1.54,0,0,1,3,.22q2.31,10.56,4.85,21.32a1.82,1.82,0,0,0,1.48,1.38,162.42,162.42,0,0,1,21.37,4.68C104.79,214.2,105.42,216.51,104.1,217.09Zm8.08-38.19q.82-10.2,1.61-20.43a1.51,1.51,0,0,0-1.06-1.56,157.84,157.84,0,0,0-19.23-4.79c-1.46-.25-1.2-2.37.37-3.09q10.08-4.54,20.06-7.89a1.83,1.83,0,0,0,1.25-1.59q.73-10.25,1.42-20.51c.11-1.6,2.08-2.32,2.89-1l10.88,17.17a1.69,1.69,0,0,0,1.8.77,184.07,184.07,0,0,1,19.16-3.42c1.46-.18,2.72,1.95,1.83,3.07q-5.72,7.25-12,14.67a1.71,1.71,0,0,0,0,2q6,9.57,12.44,19.89c1,1.62-.32,3-1.93,2.12a207,207,0,0,0-20.49-10.4,1.69,1.69,0,0,0-2,.38q-6.7,7.69-13.88,15.71C114.22,181.2,112,180.48,112.18,178.9Zm80.36,65.75c-6.42,2.64-13.06,5.55-19.87,8.78a1.49,1.49,0,0,0-.79,1.73q2.67,11.79,5.56,23.77c.4,1.67-1.6,2.46-2.92,1.19Q165.06,271,156.09,263a1.8,1.8,0,0,0-2-.24c-7.11,3.8-14.38,7.93-21.75,12.41-1.54.93-3.16-.28-2.37-1.8q5.7-10.92,11-21.73a1.49,1.49,0,0,0-.33-1.84c-5.62-4.61-11-8.83-16.22-12.71-1.07-.8-.06-2.91,1.48-3.06a160.39,160.39,0,0,1,22.5-.53,1.81,1.81,0,0,0,1.7-1.06q5-10.75,9.48-21.47a1.54,1.54,0,0,1,3,.3q2.28,11.41,4.76,23a1.81,1.81,0,0,0,1.46,1.41,175.29,175.29,0,0,1,23,5.54C193.29,241.78,193.87,244.1,192.54,244.65Z"/></g></g></svg>