<?xml version="1.0" encoding="utf-8"?>
<!-- Generator: Adobe Illustrator 25.3.1, SVG Export Plug-In . SVG Version: 6.00 Build 0)  -->
<svg version="1.1" id="Layer_1" xmlns="http://www.w3.org/2000/svg" xmlns:xlink="http://www.w3.org/1999/xlink" x="0px" y="0px"
	 viewBox="0 0 237.8 300" style="enable-background:new 0 0 237.8 300;" xml:space="preserve">
<style type="text/css">
	.st0{fill:none;stroke:#FFFFFF;stroke-width:10;stroke-miterlimit:10;}
</style>
<g id="Layer_2_1_">
	<g id="Layer_1-2">
		<path class="st0" d="M91.1,295c-25.3,0-50.7-1.5-75.8-4.6c-6.4-0.8-11-6.7-10.2-13.1c0.1-1.2,0.5-2.4,1-3.5
			c8.6-18.7,17.2-39.5,26.5-63.7c4.6-12,7.8-24.1,11.1-36.9c3-11.5,6.1-23.4,10.3-34.9s8.9-23,13.5-34.1c4.2-10.1,8.5-20.6,12.4-31
			c0.7-1.9,1.4-3.8,2.1-5.7v-0.1c3.2-8.7,6.4-17.8,11.2-25.9c5.4-9.1,12.5-17.1,19.4-24.8c2.8-3.1,5.5-6.1,8.1-9.1
			c1.5-1.8,3.7-2.8,6-2.8c1,0,2,0.2,2.9,0.6c3.1,1.3,5.1,4.4,4.8,7.7c-0.2,3.2-0.6,6.3-0.9,9.4c-0.9,7.6-1.6,14.7-0.6,21.7
			c1,6.1,3.1,12.1,5.5,18.5c1.4,3.8,2.9,7.8,4,11.8c6.3,22,16,39.3,27.2,59.3l0.1,0.1c1.2,2.1,2.4,4.3,3.6,6.5
			c20,36.1,37.8,73.3,53.1,111.6l0.2,0.4l3,4.6l-1,0.3l2,5.1c0.5,1.3,1,2.6,1.5,3.8c2.3,6.1-0.7,12.9-6.8,15.2
			c-0.7,0.3-1.4,0.5-2.1,0.6c-46.2,8.6-89.4,12.8-132,12.8H91.1z"/>
	</g>
</g>
</svg>
