<?xml version="1.0" encoding="utf-8"?>
<!-- Generator: Adobe Illustrator 25.3.1, SVG Export Plug-In . SVG Version: 6.00 Build 0)  -->
<svg version="1.1" id="Layer_1" xmlns="http://www.w3.org/2000/svg" xmlns:xlink="http://www.w3.org/1999/xlink" x="0px" y="0px"
	 viewBox="0 0 233.6 300" style="enable-background:new 0 0 233.6 300;" xml:space="preserve">
<style type="text/css">
	.st0{fill:#FFFFFF;}
</style>
<g id="Layer_2_1_">
	<g id="Layer_1-2">
		<path class="st0" d="M233.1,275.9c-1.8-4.7-3.7-9.4-5.6-14.2l0,0l0,0c-16.4-41-35.3-80.8-56.8-119.4
			C157.4,118.2,145,97.5,137.4,71c-3.1-10.8-8.4-21.8-10.2-32.9c-1.8-11.3,0.7-22.8,1.5-34.2c0.1-2-1.4-3.7-3.4-3.8
			c-1.1-0.1-2.3,0.4-3,1.3c-9.8,11.7-21.2,22.4-28.9,35.5c-6,10.2-9.8,22-13.9,33c-8.7,23.4-19.1,46.1-27.6,69.4
			c-9.2,25.1-13.3,51.5-22.9,76.6C20.3,238.7,11,261.7,0.7,284c-1.8,3.9-0.1,8.6,3.9,10.4c0.7,0.3,1.5,0.6,2.3,0.7
			c74.3,9.2,146.5,5.1,220.3-8.6c4.3-0.8,7.1-4.9,6.3-9.2C233.4,276.8,233.3,276.3,233.1,275.9z M104.1,217.1
			c-5.9,2.6-12,5.5-18.2,8.6c-0.6,0.3-0.9,1.1-0.7,1.8c1.8,7.3,3.7,14.7,5.7,22.1c0.4,1.7-1.5,2.5-2.9,1.2
			c-6-5.6-11.8-10.8-17.5-15.7c-0.6-0.5-1.4-0.5-2-0.2c-6.5,3.6-13.2,7.6-20,11.8c-1.5,0.9-3.2-0.2-2.4-1.8
			c3.4-6.8,6.6-13.6,9.8-20.3c0.3-0.6,0.2-1.4-0.4-1.8c-5.3-4.2-10.5-8-15.4-11.5c-1.1-0.8-0.1-2.9,1.4-3.1c7-0.8,14-1.1,21-0.9
			c0.7,0,1.4-0.4,1.7-1.1c2.9-6.7,5.8-13.4,8.4-20.1c0.2-0.8,1.1-1.3,1.9-1c0.6,0.2,1,0.7,1.1,1.3c1.5,7,3.2,14.1,4.8,21.3
			c0.2,0.7,0.8,1.3,1.5,1.4c7.2,1.1,14.4,2.6,21.4,4.7C104.8,214.2,105.4,216.5,104.1,217.1L104.1,217.1z M112.2,178.9
			c0.5-6.8,1.1-13.6,1.6-20.4c0.1-0.7-0.4-1.4-1.1-1.6c-6.3-2-12.7-3.6-19.2-4.8c-1.5-0.2-1.2-2.4,0.4-3.1c6.7-3,13.4-5.7,20.1-7.9
			c0.7-0.2,1.2-0.9,1.2-1.6c0.5-6.8,1-13.7,1.4-20.5c0.1-1.6,2.1-2.3,2.9-1l10.9,17.2c0.4,0.6,1.1,0.9,1.8,0.8
			c6.3-1.5,12.7-2.6,19.2-3.4c1.5-0.2,2.7,1.9,1.8,3.1c-3.8,4.8-7.8,9.7-12,14.7c-0.4,0.6-0.4,1.4,0,2c4,6.4,8.1,13,12.4,19.9
			c1,1.6-0.3,3-1.9,2.1c-6.6-3.8-13.5-7.3-20.5-10.4c-0.7-0.3-1.5-0.2-2,0.4c-4.5,5.1-9.1,10.4-13.9,15.7
			C114.2,181.2,112,180.5,112.2,178.9L112.2,178.9z M192.5,244.6c-6.4,2.6-13.1,5.6-19.9,8.8c-0.6,0.3-1,1-0.8,1.7
			c1.8,7.9,3.6,15.8,5.6,23.8c0.4,1.7-1.6,2.5-2.9,1.2c-6.3-6.1-12.4-11.8-18.4-17.1c-0.6-0.5-1.3-0.6-2-0.2
			c-7.1,3.8-14.4,7.9-21.8,12.4c-1.5,0.9-3.2-0.3-2.4-1.8c3.8-7.3,7.5-14.5,11-21.7c0.3-0.6,0.2-1.4-0.3-1.8
			c-5.6-4.6-11-8.8-16.2-12.7c-1.1-0.8-0.1-2.9,1.5-3.1c7.5-0.7,15-0.9,22.5-0.5c0.7,0,1.4-0.4,1.7-1.1c3.3-7.2,6.5-14.3,9.5-21.5
			c0.3-0.8,1.1-1.3,1.9-1c0.6,0.2,1,0.7,1.1,1.3c1.5,7.6,3.1,15.3,4.8,23c0.2,0.7,0.7,1.3,1.5,1.4c7.8,1.3,15.5,3.2,23,5.5
			C193.3,241.8,193.9,244.1,192.5,244.6L192.5,244.6z"/>
	</g>
</g>
</svg>
