<svg xmlns="http://www.w3.org/2000/svg" viewBox="0 0 237.77 300"><g id="Layer_2" data-name="Layer 2"><g id="Layer_1-2" data-name="Layer 1"><path d="M91.1,300a621.77,621.77,0,0,1-76.43-4.67A16.73,16.73,0,0,1,1.52,271.75c8.51-18.59,17.13-39.33,26.35-63.38,4.49-11.73,7.63-23.68,11-36.34,3-11.62,6.2-23.63,10.48-35.34s9-23.1,13.57-34.25C67,92.34,71.33,81.9,75.18,71.57c.71-1.88,1.4-3.79,2.09-5.72,3.24-8.94,6.59-18.19,11.63-26.73,5.65-9.58,13-17.7,20-25.56,2.78-3.09,5.41-6,8-9a12.76,12.76,0,0,1,22.49,9.1c-.23,3.28-.6,6.51-.95,9.63-.81,7.22-1.58,14-.58,20.37.88,5.6,3,11.42,5.23,17.58,1.43,3.93,2.91,8,4.09,12.12,6.11,21.39,15.69,38.48,26.79,58.27q1.83,3.25,3.69,6.6A989.25,989.25,0,0,1,231,250.39l6.35,9.79-2.22.66c.51,1.31,1,2.59,1.49,3.84a16.75,16.75,0,0,1-12.59,22.48C177.89,295.73,133.88,300,91.1,300ZM19.7,277.05C83,284.58,148,282,218.28,269.16c-1.32-3.4-2.74-7-4.3-10.9l0,0a968.69,968.69,0,0,0-52.69-110.88c-1.23-2.22-2.46-4.4-3.67-6.56-11.18-20-21.75-38.79-28.46-62.29-1-3.49-2.3-7.07-3.68-10.87-2.45-6.72-5-13.68-6.14-21.06a70,70,0,0,1-.45-16c-5.24,5.91-10.07,11.71-13.82,18.08-4.16,7-7.2,15.45-10.15,23.59-.71,2-1.42,3.94-2.15,5.88-4,10.63-8.32,21.22-12.54,31.46-4.52,11-9.2,22.33-13.3,33.55C62.93,154,60,165.07,57,176.79c-3.31,12.58-6.72,25.6-11.58,38.28C36.43,238.44,28,258.75,19.7,277.05Z"/></g></g></svg>