<svg xmlns="http://www.w3.org/2000/svg" viewBox="0 0 144.2 297.55"><defs><style>.cls-1{fill:none;stroke:#000;stroke-miterlimit:10;stroke-width:13px;}</style></defs><g id="Layer_2" data-name="Layer 2"><g id="Layer_1-2" data-name="Layer 1"><path class="cls-1" d="M116.66,103.35,91.45,124.54a1.79,1.79,0,0,0-.57,1.87l9.52,33.89a1.8,1.8,0,0,1-2.89,1.87l-11-9.26a1.8,1.8,0,0,0-2.95,1.24L73.89,289.38a1.79,1.79,0,0,1-3.58,0L60.66,154.15a1.8,1.8,0,0,0-2.95-1.25l-11,9.27a1.8,1.8,0,0,1-2.89-1.87l9.52-33.89a1.81,1.81,0,0,0-.57-1.87L27.54,103.35a1.79,1.79,0,0,1,1.16-3.17H54.88a1.8,1.8,0,0,0,1.79-1.93l-.82-11.48a1.8,1.8,0,0,0-1.79-1.67H8.3a1.8,1.8,0,0,1-1.06-3.25L44.56,54.74a1.8,1.8,0,0,0,.65-2L31,8.86a1.8,1.8,0,0,1,2.77-2L71,34a1.8,1.8,0,0,0,2.12,0L110.47,6.85a1.8,1.8,0,0,1,2.77,2L99,52.73a1.8,1.8,0,0,0,.65,2L137,81.85a1.8,1.8,0,0,1-1.06,3.25H90.14a1.8,1.8,0,0,0-1.79,1.67l-.82,11.48a1.8,1.8,0,0,0,1.79,1.93H115.5A1.8,1.8,0,0,1,116.66,103.35Z"/></g></g></svg>