<?xml version="1.0" encoding="utf-8"?>
<!-- Generator: Adobe Illustrator 25.3.1, SVG Export Plug-In . SVG Version: 6.00 Build 0)  -->
<svg version="1.1" id="Layer_1" xmlns="http://www.w3.org/2000/svg" xmlns:xlink="http://www.w3.org/1999/xlink" x="0px" y="0px"
	 viewBox="0 0 147.6 300" style="enable-background:new 0 0 147.6 300;" xml:space="preserve">
<style type="text/css">
	.st0{fill:#FFFFFF;}
</style>
<g id="Layer_2_1_">
	<g id="Layer_1-2">
		<path class="st0" d="M74.3,300h-1L61.1,147.5l-19.4,16.3L54,120.2L22,93.3h34.8l-0.5-6.6H0l45.6-33.1L28.2,0l45.6,33.2L119.4,0
			L102,53.6l45.6,33.1H91.3l-0.5,6.6h34.8l-31.9,26.9l12.2,43.6l-19.4-16.3L74.3,300z M62,145.4l11.8,148l11.8-148l18.4,15.4
			l-11.5-41l30.3-25.5H89.7l0.7-8.6h54.1L100.8,54l16.7-51.3L73.8,34.4L30.1,2.7L46.8,54L3.2,85.8h54.1l0.7,8.6H24.9l30.3,25.5
			l-11.5,41L62,145.4z"/>
		<polygon class="st0" points="117.3,96.5 90.4,119.1 100.7,155.7 84.3,142 73.8,289.5 63.3,142 46.9,155.7 57.2,119.1 30.3,96.5 
			60,96.5 59.1,82.9 11.4,82.9 50,54.9 35.2,9.6 73.8,37.6 112.4,9.6 97.7,54.9 136.2,82.9 88.6,82.9 87.6,96.5 		"/>
	</g>
</g>
</svg>
