<?xml version="1.0" encoding="utf-8"?>
<!-- Generator: Adobe Illustrator 25.3.1, SVG Export Plug-In . SVG Version: 6.00 Build 0)  -->
<svg version="1.1" id="Layer_1" xmlns="http://www.w3.org/2000/svg" xmlns:xlink="http://www.w3.org/1999/xlink" x="0px" y="0px"
	 viewBox="0 0 141.2 294.5" style="enable-background:new 0 0 141.2 294.5;" xml:space="preserve">
<style type="text/css">
	.st0{fill:none;stroke:#FFFFFF;stroke-width:10;stroke-miterlimit:10;}
</style>
<g id="Layer_2_1_">
	<g id="Layer_1-2">
		<path class="st0" d="M115.2,101.8L90,123c-0.5,0.5-0.8,1.2-0.6,1.9l9.5,33.9c0.3,1-0.3,2-1.2,2.2c-0.6,0.2-1.2,0-1.7-0.4l-11-9.3
			c-0.7-0.7-1.9-0.6-2.5,0.1c-0.3,0.3-0.4,0.7-0.5,1.1l-9.6,135.2c0,1-0.8,1.8-1.8,1.8s-1.8-0.8-1.8-1.8l0,0l-9.6-135.2
			c-0.1-1-0.9-1.7-1.9-1.7c-0.4,0-0.7,0.2-1,0.4l-11,9.3c-0.8,0.6-1.9,0.5-2.5-0.2c-0.4-0.5-0.5-1.1-0.4-1.7l9.5-33.9
			c0.2-0.7,0-1.4-0.6-1.9L26,101.8c-0.8-0.6-0.9-1.8-0.2-2.5c0.3-0.4,0.9-0.7,1.4-0.6h26.2c1,0,1.8-0.8,1.8-1.8c0,0,0-0.1,0-0.1
			l-0.8-11.5c-0.1-0.9-0.8-1.7-1.8-1.7H6.8c-1,0-1.8-0.8-1.8-1.8c0-0.6,0.3-1.1,0.7-1.4l37.3-27.1c0.6-0.5,0.9-1.3,0.7-2L29.5,7.4
			c-0.3-0.9,0.2-2,1.2-2.3c0.5-0.2,1.1-0.1,1.6,0.3l37.3,27.1c0.6,0.5,1.5,0.5,2.1,0L109,5.3c0.8-0.6,1.9-0.4,2.5,0.4
			c0.3,0.5,0.4,1.1,0.3,1.6L97.5,51.2c-0.2,0.7,0,1.5,0.7,2l37.3,27.1c0.8,0.6,1,1.7,0.4,2.5c-0.3,0.5-0.9,0.7-1.4,0.7H88.6
			c-0.9,0-1.7,0.7-1.8,1.7L86,96.8c-0.1,1,0.7,1.9,1.7,1.9c0,0,0.1,0,0.1,0H114c1,0,1.8,0.8,1.8,1.8
			C115.8,101,115.6,101.5,115.2,101.8z"/>
	</g>
</g>
</svg>
