<svg xmlns="http://www.w3.org/2000/svg" viewBox="0 0 147.63 300"><g id="Layer_2" data-name="Layer 2"><g id="Layer_1-2" data-name="Layer 1"><path d="M74.33,300h-1L61.14,147.52l-19.39,16.3L54,120.2,22.05,93.34H56.81l-.52-6.56H0L45.62,53.63,28.2,0,73.82,33.15,119.44,0,102,53.63l45.62,33.15H91.34l-.52,6.56h34.77L93.64,120.2l12.25,43.62L86.5,147.52ZM62,145.44l11.82,148,11.81-148L104,160.88l-11.52-41,30.29-25.47H89.7l.69-8.62h54.07L100.8,54,117.48,2.7,73.82,34.42,30.15,2.7,46.83,54,3.17,85.75H57.24l.69,8.62H24.87l30.3,25.47-11.53,41Z"/><polygon points="117.34 96.53 90.44 119.14 100.72 155.72 84.34 141.96 73.82 289.53 63.29 141.96 46.92 155.72 57.19 119.14 30.29 96.53 60.05 96.53 59.08 82.95 11.39 82.95 49.97 54.92 35.23 9.56 73.82 37.59 112.4 9.56 97.66 54.92 136.25 82.95 88.56 82.95 87.59 96.53 117.34 96.53"/></g></g></svg>