<svg xmlns="http://www.w3.org/2000/svg" viewBox="0 0 141.2 294.55"><defs><style>.cls-1{fill:none;stroke:#000;stroke-miterlimit:10;stroke-width:10px;}</style></defs><g id="Layer_2" data-name="Layer 2"><g id="Layer_1-2" data-name="Layer 1"><path class="cls-1" d="M115.16,101.85,90,123a1.79,1.79,0,0,0-.57,1.87L98.9,158.8A1.8,1.8,0,0,1,96,160.67l-11-9.26A1.8,1.8,0,0,0,82,152.65L72.39,287.88a1.79,1.79,0,0,1-3.58,0L59.16,152.65a1.8,1.8,0,0,0-2.95-1.25l-11,9.27a1.8,1.8,0,0,1-2.89-1.87l9.52-33.89a1.81,1.81,0,0,0-.57-1.87L26,101.85a1.79,1.79,0,0,1,1.16-3.17H53.38a1.8,1.8,0,0,0,1.79-1.93l-.82-11.48a1.8,1.8,0,0,0-1.79-1.67H6.8a1.8,1.8,0,0,1-1.06-3.25L43.06,53.24a1.8,1.8,0,0,0,.65-2L29.46,7.36a1.8,1.8,0,0,1,2.77-2L69.54,32.46a1.8,1.8,0,0,0,2.12,0L109,5.35a1.8,1.8,0,0,1,2.77,2L97.49,51.23a1.8,1.8,0,0,0,.65,2l37.32,27.11a1.8,1.8,0,0,1-1.06,3.25H88.64a1.8,1.8,0,0,0-1.79,1.67L86,96.75a1.8,1.8,0,0,0,1.79,1.93H114A1.8,1.8,0,0,1,115.16,101.85Z"/></g></g></svg>